<svg id="Слой_1" xmlns="http://www.w3.org/2000/svg" viewBox="0 0 217.6 141.8"><style>.st0{fill:#dd61f7}.st1{fill:#89067d}.st2{fill:#c909b7}.st3{fill:#d81681}</style><path class="st0" d="M4.5 138.8v-6.3H2.4v-1h5.4v1H5.7v6.3H4.5zM13.6 140.7c.2.1.4.1.6.1.5 0 .8-.2 1.1-.8l.5-1.1-3.1-7.4h1.2l2.4 6 2.4-6h1.2l-3.7 8.8c-.4 1.1-1.2 1.5-2.2 1.5-.2 0-.6 0-.8-.1l.4-1zM27 137.7v3.9h-1.2v-10.1h1.1v1.1c.5-.7 1.4-1.3 2.5-1.3 1.9 0 3.3 1.5 3.3 3.8 0 2.4-1.3 3.9-3.3 3.9-1 0-1.8-.5-2.4-1.3zm4.5-2.5c0-1.6-.9-2.8-2.4-2.8-.9 0-1.8.5-2.2 1.2v3.3c.4.6 1.3 1.2 2.2 1.2 1.5-.1 2.4-1.3 2.4-2.9zM47.1 135.2c0-2.1 1.4-3.8 3.6-3.8s3.6 1.7 3.6 3.8-1.4 3.9-3.6 3.9-3.6-1.8-3.6-3.9zm6.1 0c0-1.5-.9-2.8-2.4-2.8-1.6 0-2.4 1.3-2.4 2.8s.9 2.8 2.4 2.8 2.4-1.3 2.4-2.8zM65.7 138.8v-6.3h-3.8v6.3h-1.1v-7.3h6.1v7.3h-1.2zM73.3 135.2c0-2.1 1.5-3.8 3.6-3.8 2.2 0 3.5 1.7 3.5 3.9v.3h-5.9c.1 1.4 1.1 2.5 2.6 2.5.8 0 1.7-.3 2.3-.9l.5.7c-.7.7-1.7 1.1-2.9 1.1-2.2 0-3.7-1.6-3.7-3.8zm3.6-2.9c-1.6 0-2.3 1.3-2.4 2.4h4.8c0-1.1-.8-2.4-2.4-2.4zM87.9 137.7v3.9h-1.1v-10.1h1.1v1.1c.5-.7 1.4-1.3 2.5-1.3 1.9 0 3.3 1.5 3.3 3.8 0 2.4-1.3 3.9-3.3 3.9-1 0-1.9-.5-2.5-1.3zm4.6-2.5c0-1.6-.9-2.8-2.4-2.8-.9 0-1.8.5-2.2 1.2v3.3c.4.6 1.3 1.2 2.2 1.2 1.5-.1 2.4-1.3 2.4-2.9zM104.6 138.8v-.8c-.6.7-1.4 1-2.4 1-1.2 0-2.6-.8-2.6-2.4s1.3-2.4 2.6-2.4c1 0 1.8.3 2.4 1v-1.3c0-1-.8-1.5-1.9-1.5-.9 0-1.6.3-2.2 1l-.5-.8c.8-.8 1.7-1.2 2.9-1.2 1.5 0 2.8.7 2.8 2.5v5h-1.1v-.1zm0-1.5v-1.4c-.4-.6-1.2-.9-2-.9-1.1 0-1.8.7-1.8 1.6s.7 1.6 1.8 1.6c.8 0 1.6-.3 2-.9zM113.9 138.8v-6.3h-2.1v-1h5.4v1h-2.1v6.3h-1.2zM122.8 135.2c0-2.1 1.4-3.8 3.6-3.8s3.6 1.7 3.6 3.8-1.4 3.9-3.6 3.9c-2.2-.1-3.6-1.8-3.6-3.9zm6.1 0c0-1.5-.9-2.8-2.4-2.8-1.6 0-2.4 1.3-2.4 2.8s.9 2.8 2.4 2.8 2.4-1.3 2.4-2.8zM137.6 137.7v3.9h-1.1v-10.1h1.1v1.1c.5-.7 1.4-1.3 2.5-1.3 1.9 0 3.3 1.5 3.3 3.8 0 2.4-1.3 3.9-3.3 3.9-1 0-1.9-.5-2.5-1.3zm4.6-2.5c0-1.6-.9-2.8-2.4-2.8-.9 0-1.8.5-2.2 1.2v3.3c.4.6 1.3 1.2 2.2 1.2 1.5-.1 2.4-1.3 2.4-2.9z"/><g><path class="st1" d="M9.8 93.1l-7.1-19h5.6L13 87.8l4.7-13.7h5.6l-7.2 19H9.8zM24.4 83.6c0-5.8 4.4-9.8 10.2-9.8 5.8 0 10.1 4 10.1 9.8s-4.3 9.8-10.1 9.8-10.2-4-10.2-9.8zm15.3 0c0-3.1-2-5.5-5.2-5.5s-5.2 2.4-5.2 5.5 2 5.5 5.2 5.5 5.2-2.4 5.2-5.5zM52.7 93.1v-7.7l-7.2-11.3H51l4.1 7 4.1-7h5.6l-7.2 11.3v7.7h-4.9zM78.5 93.1l-.9-2.7h-7.5l-.9 2.7h-5.6l7.1-19h6.1l7.2 19h-5.5zm-4.7-14.2L71.4 86h4.8l-2.4-7.1zM85 83.6c0-6 4.6-9.8 10.3-9.8 4.2 0 6.8 2.2 8.1 4.6l-4.1 2.1c-.7-1.3-2.2-2.4-4-2.4-3.1 0-5.3 2.4-5.3 5.5s2.2 5.5 5.3 5.5c1.4 0 2.8-.6 3.5-1.1v-1.5h-4.3v-4.3h9.2v7.5c-2 2.2-4.8 3.7-8.4 3.7-5.7 0-10.3-3.8-10.3-9.8zM108 93.1v-19h13.9v4.3h-9v3h8.8v4.3h-8.8v3.2h9v4.3l-13.9-.1zM136.8 93.1l-3.2-6.4h-2.5v6.4h-4.9v-19h9.5c4.2 0 6.6 2.8 6.6 6.3 0 3.3-2 5.1-3.8 5.7l3.9 7h-5.6zm.5-12.7c0-1.3-1.1-2-2.4-2H131v4.1h3.9c1.3-.1 2.4-.8 2.4-2.1z"/></g><g><path class="st2" d="M4.4 112.3c0-5.9 4.4-9.8 9.8-9.8 3.4 0 5.7 1.5 7.4 3.6l-1.9 1.2c-1.2-1.5-3.2-2.6-5.5-2.6-4.2 0-7.3 3.2-7.3 7.7s3.2 7.7 7.3 7.7c2.3 0 4.2-1.1 5.1-2.1v-3.9h-6.5V112h8.9v6.9c-1.8 2-4.4 3.3-7.5 3.3-5.4-.1-9.8-4-9.8-9.9zM47.9 121.7l-4.8-7.5h-3.8v7.5h-2.4v-19h7.6c3.5 0 6 2.2 6 5.7 0 3.4-2.3 5.3-4.9 5.5l5.1 7.7-2.8.1zm.1-13.2c0-2.1-1.5-3.6-3.8-3.6h-5v7.3h5c2.3-.1 3.8-1.6 3.8-3.7zM64.8 112.3c0-5.6 3.8-9.8 9.4-9.8s9.4 4.2 9.4 9.8c0 5.6-3.8 9.8-9.4 9.8-5.6 0-9.4-4.2-9.4-9.8zm16.4 0c0-4.4-2.7-7.7-7-7.7s-7 3.3-7 7.7 2.7 7.7 7 7.7 7-3.3 7-7.7zM98.8 114.4v-11.6h2.4v11.6c0 3.5 1.9 5.7 5.4 5.7s5.4-2.2 5.4-5.7v-11.6h2.4v11.6c0 4.7-2.6 7.7-7.7 7.7-5.3 0-7.9-3.1-7.9-7.7zM130.1 121.7v-19h7.6c3.8 0 6 2.6 6 5.7s-2.2 5.7-6 5.7h-5.3v7.5l-2.3.1zm11.1-13.2c0-2.1-1.5-3.6-3.8-3.6h-5v7.2h5c2.3 0 3.8-1.5 3.8-3.6z"/></g><g><path class="st3" d="M176.3 93.4c-7.8 0-14.1-6.3-14.1-14.1v-24h-24c-7.8 0-14.1-6.3-14.1-14.1s6.3-14.1 14.1-14.1h38.2c7.8 0 14.1 6.3 14.1 14.1v38.2c0 7.7-6.4 14-14.2 14z"/></g><circle class="st3" cx="203.3" cy="14.3" r="14.3"/></svg>